<svg width="32" height="32" viewBox="0 0 32 32" fill="none" xmlns="http://www.w3.org/2000/svg">
<path d="M29.1875 3H2.8125C1.26363 3 0 4.3464 0 6V26C0 27.648 1.258 29 2.8125 29H29.1875C30.7325 29 32 27.6581 32 26V6C32 4.352 30.742 3 29.1875 3ZM28.7991 5L16.0596 18.5889L3.20994 5H28.7991ZM1.875 25.5859V6.4046L10.9049 15.9539L1.875 25.5859ZM3.20081 27L12.2364 17.362L15.4025 20.7101C15.769 21.0977 16.3604 21.0965 16.7254 20.7071L19.8125 17.4142L28.7992 27H3.20081ZM30.125 25.5858L21.1383 16L30.125 6.41413V25.5858Z" fill="black"/>
</svg>
