<svg width="32" height="32" viewBox="0 0 32 32" fill="none" xmlns="http://www.w3.org/2000/svg">
<circle cx="16" cy="16" r="16" fill="#C4C4C4"/>
<path d="M6.95216 7.97619H6.81853C6.28398 7.97619 5.86687 8.15873 5.5672 8.52381C5.27563 8.88095 5.12984 9.51984 5.12984 10.4405C5.12984 10.7341 5.15819 10.9405 5.21488 11.0595C5.27158 11.1706 5.29992 11.2341 5.29992 11.25C4.86257 11.25 4.53455 11.1627 4.31587 10.9881C4.10529 10.8056 4 10.5079 4 10.0952C4 9.53175 4.14174 9.01984 4.42521 8.55952C4.70868 8.09127 5.15819 7.71429 5.77373 7.42857C6.39737 7.14286 7.18704 7 8.14275 7C8.43432 7 8.83523 7.03571 9.34548 7.10714C9.39408 7.11508 9.58441 7.13889 9.91648 7.17857C10.2566 7.21825 10.6009 7.2381 10.9491 7.2381C11.5566 7.2381 12.1438 7.1627 12.7107 7.01191C12.6135 7.53571 12.4475 7.97619 12.2126 8.33333C11.9777 8.68254 11.6416 8.85714 11.2043 8.85714C10.9127 8.85714 10.6535 8.82937 10.4267 8.77381C10.1999 8.71032 9.92863 8.61905 9.61276 8.5C9.28879 8.38095 8.96887 8.27778 8.653 8.19048L8.1306 10.5714H9.66135L9.46697 11.4524H7.93622L6.95216 15.9286H5.20273L6.95216 7.97619ZM10.6697 16C10.2809 16 9.96507 15.881 9.7221 15.6429C9.48722 15.4048 9.36978 15.0476 9.36978 14.5714C9.36978 14.373 9.40218 14.1151 9.46697 13.7976L10.2931 9.97619H12.0425L11.1678 14.0238C11.1354 14.1429 11.1192 14.2698 11.1192 14.4048C11.1192 14.5635 11.1557 14.6786 11.2285 14.75C11.3095 14.8135 11.4391 14.8452 11.6173 14.8452C11.8522 14.8452 12.0709 14.75 12.2733 14.5595C12.4758 14.3611 12.6216 14.1071 12.7107 13.7976H13.221C12.9213 14.6548 12.5366 15.2381 12.0668 15.5476C11.5971 15.8492 11.1314 16 10.6697 16Z" fill="black"/>
<path d="M17.0914 16C16.5973 16 16.2329 15.873 15.998 15.619C15.7712 15.3571 15.6578 15.0357 15.6578 14.6548C15.6578 14.4881 15.6781 14.3016 15.7186 14.0952C15.7591 13.881 15.7996 13.6746 15.8401 13.4762C15.8887 13.2778 15.9211 13.1508 15.9373 13.0952C16.0021 12.8175 16.0628 12.5437 16.1195 12.2738C16.1762 12.004 16.2045 11.7857 16.2045 11.619C16.2045 11.2143 16.0588 11.0119 15.7672 11.0119C15.5566 11.0119 15.3703 11.1151 15.2083 11.3214C15.0463 11.5198 14.9168 11.7817 14.8196 12.1071L13.9935 15.9286H12.244L13.5318 9.97619H15.2812L15.1476 10.5952C15.5525 10.1508 16.0264 9.92857 16.569 9.92857C16.9821 9.92857 17.3101 10.0397 17.5531 10.2619C17.796 10.4841 17.9175 10.8214 17.9175 11.2738C17.9175 11.504 17.8892 11.7619 17.8325 12.0476C17.7758 12.3254 17.6948 12.6667 17.5895 13.0714C17.5247 13.3175 17.464 13.5595 17.4073 13.7976C17.3587 14.0278 17.3344 14.2103 17.3344 14.3452C17.3344 14.504 17.3708 14.627 17.4437 14.7143C17.5166 14.8016 17.6421 14.8452 17.8203 14.8452C18.0633 14.8452 18.2577 14.7619 18.4035 14.5952C18.5493 14.4206 18.695 14.1548 18.8408 13.7976H19.3511C19.0514 14.6706 18.7031 15.2579 18.3063 15.5595C17.9175 15.8532 17.5126 16 17.0914 16Z" fill="black"/>
<path d="M20.2973 16C19.8356 16 19.4509 15.8452 19.1431 15.5357C18.8354 15.2262 18.6815 14.7421 18.6815 14.0833C18.6815 13.496 18.7989 12.881 19.0338 12.2381C19.2768 11.5873 19.6331 11.0397 20.1029 10.5952C20.5807 10.1429 21.1477 9.91667 21.8037 9.91667C22.1358 9.91667 22.3828 9.97222 22.5448 10.0833C22.7068 10.1944 22.7878 10.3413 22.7878 10.5238V10.6071L22.9214 9.97619H24.6708L23.7961 14.0238C23.7637 14.1429 23.7475 14.2698 23.7475 14.4048C23.7475 14.746 23.9136 14.9167 24.2456 14.9167C24.4724 14.9167 24.6668 14.8135 24.8288 14.6071C24.9989 14.4008 25.1325 14.131 25.2297 13.7976H25.7399C25.4403 14.6548 25.0677 15.2381 24.6222 15.5476C24.1849 15.8492 23.7435 16 23.298 16C22.9579 16 22.6825 15.9087 22.4719 15.7262C22.2694 15.5357 22.1479 15.2619 22.1074 14.9048C21.8726 15.2302 21.6093 15.496 21.3178 15.7024C21.0343 15.9008 20.6941 16 20.2973 16ZM21.0869 14.8452C21.2894 14.8452 21.4879 14.754 21.6822 14.5714C21.8847 14.381 22.0224 14.123 22.0953 13.7976L22.6784 11.1071C22.6784 11.004 22.6379 10.9048 22.5569 10.8095C22.476 10.7063 22.3504 10.6548 22.1803 10.6548C21.8564 10.6548 21.5648 10.8413 21.3056 11.2143C21.0464 11.5794 20.844 12.0238 20.6982 12.5476C20.5524 13.0635 20.4795 13.5198 20.4795 13.9167C20.4795 14.3135 20.5362 14.5675 20.6496 14.6786C20.7711 14.7897 20.9169 14.8452 21.0869 14.8452Z" fill="black"/>
<path d="M26.4126 16C26.0238 16 25.708 15.881 25.465 15.6429C25.2301 15.3968 25.1127 15.0317 25.1127 14.5476C25.1127 14.3492 25.1451 14.0913 25.2099 13.7738L26.5098 7.80952L28.3078 7.57143L26.9107 14C26.8783 14.119 26.8621 14.2341 26.8621 14.3452C26.8621 14.6627 27.0281 14.8214 27.3602 14.8214C27.506 14.8214 27.6356 14.7976 27.749 14.75C27.7166 15.1468 27.5708 15.4563 27.3116 15.6786C27.0605 15.8929 26.7609 16 26.4126 16Z" fill="black"/>
<path d="M8.01566 18.0476H7.86987C7.14904 18.0476 6.58615 18.2262 6.18119 18.5833C5.78433 18.9325 5.58589 19.5556 5.58589 20.4524C5.58589 20.746 5.61424 20.9524 5.67094 21.0714C5.72763 21.1825 5.75598 21.246 5.75598 21.2619C5.31862 21.2619 4.9906 21.1746 4.77192 21C4.56134 20.8175 4.45605 20.5198 4.45605 20.1071C4.45605 19.5436 4.59779 19.0317 4.88126 18.5714C5.16474 18.1032 5.61424 17.7262 6.22978 17.4405C6.85342 17.1548 7.6431 17.0119 8.5988 17.0119C9.13335 17.0119 9.70839 17.0595 10.3239 17.1548C10.8423 17.2421 11.3039 17.2857 11.7089 17.2857C12.2273 17.2857 12.697 17.2024 13.1182 17.0357C13.102 17.5516 12.9683 17.9325 12.7173 18.1786C12.4662 18.4246 12.0936 18.5476 11.5996 18.5476C11.3404 18.5476 11.0812 18.5278 10.822 18.4881C10.5629 18.4484 10.1943 18.3809 9.71649 18.2857L8.03996 25.9286H6.29053L8.01566 18.0476Z" fill="black"/>
<path d="M11.69 26C11.2284 26 10.8436 25.8452 10.5359 25.5357C10.2281 25.2262 10.0742 24.7421 10.0742 24.0833C10.0742 23.496 10.1917 22.8809 10.4265 22.2381C10.6695 21.5873 11.0259 21.0397 11.4956 20.5952C11.9735 20.1429 12.5404 19.9167 13.1965 19.9167C13.5285 19.9167 13.7756 19.9722 13.9375 20.0833C14.0995 20.1944 14.1805 20.3413 14.1805 20.5238V20.6071L14.3142 19.9762H16.0636L15.1889 24.0238C15.1565 24.1429 15.1403 24.2698 15.1403 24.4048C15.1403 24.746 15.3063 24.9167 15.6384 24.9167C15.8652 24.9167 16.0595 24.8135 16.2215 24.6071C16.3916 24.4008 16.5252 24.1309 16.6224 23.7976H17.1327C16.833 24.6548 16.4605 25.2381 16.015 25.5476C15.5776 25.8492 15.1362 26 14.6908 26C14.3506 26 14.0752 25.9087 13.8647 25.7262C13.6622 25.5357 13.5407 25.2619 13.5002 24.9048C13.2653 25.2302 13.0021 25.496 12.7105 25.7024C12.427 25.9008 12.0869 26 11.69 26ZM12.4797 24.8452C12.6822 24.8452 12.8806 24.754 13.075 24.5714C13.2775 24.3809 13.4151 24.123 13.488 23.7976L14.0712 21.1071C14.0712 21.004 14.0307 20.9048 13.9497 20.8095C13.8687 20.7063 13.7432 20.6548 13.5731 20.6548C13.2491 20.6548 12.9575 20.8413 12.6984 21.2143C12.4392 21.5794 12.2367 22.0238 12.0909 22.5476C11.9451 23.0635 11.8722 23.5198 11.8722 23.9167C11.8722 24.3135 11.9289 24.5675 12.0423 24.6786C12.1638 24.7897 12.3096 24.8452 12.4797 24.8452Z" fill="black"/>
<path d="M18.0119 26C17.6231 26 17.2951 25.9286 17.0278 25.7857C16.7605 25.6349 16.5621 25.4444 16.4325 25.2143C16.3029 24.9762 16.2381 24.7302 16.2381 24.4762C16.2381 24.2143 16.3029 23.9881 16.4325 23.7976C16.554 23.5992 16.7038 23.4563 16.882 23.369C17.1979 22.8135 17.4733 22.254 17.7081 21.6905C17.943 21.119 18.1657 20.504 18.3763 19.8452L20.1744 19.6071C20.2148 20.623 20.2837 21.7222 20.3809 22.9048C20.4214 23.3809 20.4416 23.7262 20.4416 23.9405C20.4416 24.123 20.4254 24.2738 20.393 24.3929C20.7737 24.1786 21.0653 23.9802 21.2677 23.7976H21.778C21.2596 24.3849 20.6401 24.8809 19.9192 25.2857C19.6844 25.5317 19.3928 25.7143 19.0445 25.8333C18.7043 25.9444 18.3601 26 18.0119 26ZM17.6231 25.0595C17.9228 25.0595 18.1738 24.9722 18.3763 24.7976C18.5788 24.623 18.6801 24.3413 18.6801 23.9524C18.6801 23.7143 18.6557 23.3809 18.6072 22.9524C18.5262 22.0476 18.4735 21.4405 18.4492 21.1309C18.2548 21.7579 17.9268 22.5079 17.4652 23.3809C17.6514 23.4762 17.7446 23.6151 17.7446 23.7976C17.7446 23.9484 17.6919 24.0833 17.5867 24.2024C17.4895 24.3214 17.3639 24.3809 17.21 24.3809C17.04 24.3809 16.9306 24.3294 16.882 24.2262C16.882 24.5119 16.9387 24.7222 17.0521 24.8571C17.1736 24.9921 17.3639 25.0595 17.6231 25.0595Z" fill="black"/>
<path d="M25.8337 26C25.3316 26 24.9509 25.8849 24.6917 25.6548C24.4325 25.4167 24.303 25.0794 24.303 24.6429C24.303 24.4524 24.3273 24.246 24.3759 24.0238L24.473 23.5595C24.5054 23.4246 24.5216 23.2778 24.5216 23.119C24.5216 22.7381 24.3759 22.5476 24.0843 22.5476C23.9547 22.5476 23.817 22.5833 23.6712 22.6548C23.5335 22.7262 23.3715 22.8373 23.1853 22.9881L22.5535 25.9286H20.8041L22.5657 17.8333L24.3637 17.5952L23.4525 21.7857L25.7973 19.9762H27L24.5702 21.6309C24.6917 21.5992 24.8254 21.5833 24.9711 21.5833C25.4085 21.5833 25.7406 21.7143 25.9673 21.9762C26.1941 22.2381 26.3075 22.5714 26.3075 22.9762C26.3075 23.1429 26.2913 23.2936 26.2589 23.4286L26.1253 24.0238C26.0848 24.1667 26.0645 24.2936 26.0645 24.4048C26.0645 24.6984 26.2225 24.8452 26.5383 24.8452C26.7165 24.8452 26.8299 24.8333 26.8785 24.8095C26.9271 24.7857 26.9555 24.7738 26.9636 24.7738C26.9474 25.0357 26.8704 25.2579 26.7327 25.4405C26.6031 25.623 26.4492 25.7619 26.2711 25.8571C26.101 25.9524 25.9552 26 25.8337 26Z" fill="black"/>
</svg>
